<svg xmlns="http://www.w3.org/2000/svg" viewBox="0 0 257.33334 257.33334"><g fill-rule="evenodd"><path d="M0 257.333h257.008V.325H0z" fill="transparent"/><path d="M199.74 173.736l.34-3.494c.17-4.09.256-6.902.17-8.606-.085-4.26-1.533-6.903-4.43-7.84-1.96-.597-3.835-.255-5.624 1.108-.937.767-1.96 1.874-3.067 3.408l-.598.853c-.427-2.045-1.448-3.664-3.068-4.943-2.3-1.79-5.71-2.386-10.224-1.79l1.533-7.668.255-1.79c0-1.278-.425-2.386-1.107-3.408-.85-.938-1.79-1.534-2.98-1.875-1.364-.34-2.728-.084-3.92.597-1.28.768-2.047 1.79-2.387 3.154l-1.364 4.176a403.545 403.545 0 0 1-3.835 10.48c-2.13.768-4.26 1.62-6.39 2.472l-2.728 1.278c-1.364.597-2.214 1.534-2.726 2.897-.51 1.45-.426 2.812.086 4.09.34.682.852 1.28 1.448 1.79-1.107-.085-2.13.085-3.323.596.512-.853.768-1.79.768-2.813v-.51c-.17-1.45-.767-2.642-1.875-3.58-1.108-.937-2.386-1.278-3.833-1.192-1.62.085-3.495.766-5.624 1.79-3.835 1.958-7.414 5.112-10.482 9.457-.34.426-.767.853-1.022 1.364-.597.937-1.108 1.874-1.534 2.982-.852 1.875-1.45 3.664-1.79 5.454-.937 4.515-.17 7.924 2.216 10.14.853.767 1.96 1.278 3.068 1.618 1.79.512 3.664.34 5.71-.425 2.13-.852 4.685-2.557 7.497-5.028l4.26-3.75c.596 3.154 2.045 5.114 4.43 5.88 2.557.768 4.858-.085 7.158-2.47 1.45-1.535 3.237-4.176 5.283-8.01.513 3.578 2.046 5.88 4.687 6.816 3.75 1.534 7.414-.596 11.078-6.306.597.768 1.45 1.28 2.3 1.535 2.132.85 4.177.426 6.052-1.108 1.448-1.108 3.153-3.153 4.94-6.05l-1.106 13.037c-12.952 2.13-28.46 5.37-46.27 9.715a1359.424 1359.424 0 0 0-45.587 12.1c-2.47.682-4.942 1.364-7.413 2.13l-17.297 5.028-6.732 2.045c-1.363.426-2.47 1.278-3.153 2.557-.596 1.362-.766 2.64-.34 4.09.51 1.363 1.364 2.47 2.642 3.067 1.277.682 2.64.852 4.003.426l6.817-2.045c5.71-1.704 11.59-3.494 17.724-5.198 16.02-4.6 30.932-8.607 44.906-12.1 2.983-.767 5.88-1.448 8.863-2.13 15.252-3.664 28.972-6.562 40.816-8.692-.343 3.92-.684 7.5-1.11 10.822-1.022 9.544-1.874 16.957-2.64 22.326-.767.512-1.365 1.108-1.79 1.875a5.197 5.197 0 0 0-.68 2.556v.257c.083 1.448.168 2.642.34 3.58.34 2.214 1.192 3.834 2.725 4.686.938.51 1.875.852 2.812.852a5.19 5.19 0 0 0 2.556-.683c1.364-.68 2.302-1.874 2.898-3.578l.683-2.47 1.107-6.988c.768-5.283 1.62-12.44 2.557-21.473l.086-.938 1.277-12.44 4.687-.512c9.458-1.108 16.616-1.28 21.642-.596 2.727.426 4.43 1.022 5.198 1.704v.512l-.17 1.193c0 1.278.34 2.386 1.107 3.408.767.938 1.79 1.62 2.983 1.875 1.448.34 2.727.085 4.005-.682 1.278-.766 2.044-1.79 2.386-3.237.51-2.217.425-4.177-.087-5.966-.51-1.875-1.533-3.494-2.982-4.858-2.385-2.215-5.963-3.75-10.82-4.43-6.39-.938-15.34-.682-26.927.68zM85.643 187.88c-.427 1.193-.597 2.386-.682 3.58-2.385 1.96-4.43 3.323-6.134 4.26.68-2.13 1.875-4.345 3.493-6.56 1.277-.087 2.215-.598 3.323-1.28zm-36.045-1.108l14.486-26.67c.682-1.28 1.79-2.13 3.153-2.557 1.363-.51 2.727-.34 4.005.34 1.278.683 2.13 1.79 2.556 3.154.427 1.448.34 2.81-.34 4.09l-9.29 17.212c3.324-.937 6.733.51 7.245 4.09a48.89 48.89 0 0 1 3.322-4.857c1.363-1.79 3.068-3.75 5.028-4.943a6.373 6.373 0 0 1 3.493-.766c1.705.17 3.238.852 4.347 2.215v.086l1.022 1.79 1.108-2.045c3.067-5.112 6.476-8.01 10.31-8.435 2.386-.34 5.198.51 6.902 2.386 1.45 1.535 2.216 3.41 2.3 5.795v.085c0 1.108-.254 2.3-.596 3.494 1.363-.34 2.64-.17 3.834.596.852.512 1.448 1.193 1.96 1.96.426.767.68 1.704.68 2.642v.34a5.248 5.248 0 0 1-.765 2.3c-2.217 3.75-4.943 6.903-8.01 9.375-1.79 1.363-3.41 2.556-5.03 3.238-5.026 2.556-9.202 2.64-12.354.256-3.75 2.557-6.902 4.26-9.63 5.028-2.726.767-5.11.597-7.07-.34-2.302-1.11-3.836-2.983-4.518-5.71-.34 1.704-.51 2.897-.51 3.58v.17l.17 1.448c0 1.023-.256 1.96-.853 2.897-.597.937-1.448 1.534-2.47 1.96-1.28.596-2.643.596-4.006 0-1.365-.512-2.302-1.534-2.898-2.898-.51-1.192-.68-2.726-.51-4.6.17-2.302.766-5.454 1.873-9.46l.768-2.726c-5.88 10.99-9.46 17.467-10.822 19.683-2.556 4.175-5.368 5.88-8.52 5.198-1.364-.34-2.472-1.022-3.324-2.13-.852-1.022-1.363-2.3-1.534-3.92l-3.323-16.615c-.342-1.45-.086-2.813.766-4.005.767-1.194 1.875-1.96 3.323-2.302 1.448-.255 2.81 0 4.004.853 1.193.768 1.96 1.876 2.3 3.325l1.28 6.56zm90.153-13.036l-3.237 2.726-4.175 3.75c1.45-2.557 3.238-4.772 5.623-6.476.428-.34.855-.597 1.28-.853.852-.426 1.79-.937 2.812-1.192zm34.682-2.813l-3.664-.17c.17-1.96.427-4.346.768-7.243a23.943 23.943 0 0 1 4.26-.68c-.512 2.725-.937 5.367-1.364 8.093zM153.3 169.9l-.427.853-.937-.852h1.364" fill="#231f20"/><path d="M195.224 170.327l.34-3.408c.17-4.09.256-6.904.17-8.608-.085-4.26-1.533-6.902-4.515-7.84-1.96-.596-3.836-.255-5.625 1.108-.938.767-1.96 1.875-3.068 3.41l-.596.85c-.425-2.044-1.447-3.662-3.067-4.94-2.3-1.79-5.708-2.387-10.226-1.79l1.535-7.754.255-1.79c0-1.193-.426-2.3-1.107-3.323-.853-.938-1.79-1.534-2.983-1.875-1.364-.34-2.728-.085-3.92.597-1.278.767-2.045 1.79-2.386 3.153l-1.362 4.09c-1.108 3.493-2.387 6.987-3.835 10.566-2.13.767-4.26 1.62-6.39 2.47l-2.727 1.28c-1.364.596-2.216 1.533-2.727 2.896-.51 1.45-.426 2.812.085 4.09.34.682.852 1.28 1.448 1.79-1.108-.085-2.13.084-3.323.596.51-.852.767-1.79.767-2.812v-.51c-.17-1.45-.767-2.643-1.875-3.58-1.108-.937-2.385-1.278-3.835-1.192-1.618.084-3.408.766-5.538 1.79-3.92 1.96-7.5 5.11-10.567 9.372-.34.426-.682.852-.937 1.363-.597.937-1.108 1.875-1.534 2.982-.852 1.96-1.534 3.75-1.875 5.538-.937 4.516-.17 7.924 2.3 10.14.853.767 1.876 1.278 2.983 1.62 1.79.51 3.664.34 5.71-.427 2.215-.85 4.77-2.555 7.497-5.026l4.262-3.75c.595 3.153 2.043 5.113 4.43 5.88 2.555.767 4.857-.086 7.157-2.47 1.45-1.535 3.238-4.177 5.37-8.01.51 3.578 2.043 5.88 4.6 6.816 3.75 1.534 7.414-.597 11.078-6.305.596.766 1.448 1.278 2.3 1.533 2.13.852 4.174.427 6.05-1.108 1.448-1.108 3.152-3.153 4.942-6.135l-1.108 13.123c-12.953 2.13-28.46 5.368-46.27 9.714a1042.66 1042.66 0 0 0-45.588 12.1c-2.47.68-4.942 1.363-7.413 2.13l-17.3 5.027-6.73 2.045c-1.365.426-2.472 1.278-3.154 2.556-.596 1.365-.767 2.643-.34 4.09.51 1.365 1.362 2.473 2.64 3.07 1.28.68 2.643.85 4.006.425l6.817-2.045c5.708-1.705 11.587-3.494 17.723-5.198 16.02-4.6 31.017-8.607 44.99-12.1 2.898-.767 5.796-1.45 8.777-2.13 15.34-3.75 28.972-6.647 40.817-8.692-.34 3.834-.682 7.413-1.108 10.822-1.023 9.543-1.877 16.957-2.642 22.24-.768.51-1.364 1.108-1.79 1.875a5.288 5.288 0 0 0-.682 2.64v.257c.085 1.448.17 2.64.34 3.58.343 2.214 1.193 3.833 2.728 4.685.937.51 1.875.85 2.812.85.937 0 1.79-.254 2.556-.68 1.364-.682 2.3-1.875 2.897-3.58l.68-2.47 1.11-7.073c.765-5.198 1.62-12.355 2.555-21.387l.085-.938 1.28-12.44 4.685-.512c9.46-1.108 16.616-1.28 21.644-.597 2.726.427 4.43 1.023 5.197 1.704v.512l-.17 1.192c0 1.192.34 2.3 1.107 3.323.767.938 1.79 1.62 2.983 1.874 1.448.34 2.726.085 4.004-.682 1.365-.767 2.13-1.79 2.473-3.238.512-2.13.425-4.09-.086-5.88-.51-1.874-1.533-3.494-3.068-4.857-2.386-2.215-5.965-3.75-10.822-4.43-6.39-.938-15.34-.683-26.84.68zM81.04 184.557c-.34 1.194-.51 2.386-.595 3.58-2.387 1.96-4.517 3.322-6.22 4.26.68-2.13 1.873-4.346 3.578-6.562 1.278-.084 2.215-.596 3.238-1.278zm-36.043-1.108l14.486-26.672c.682-1.277 1.79-2.13 3.152-2.556 1.364-.51 2.728-.34 4.005.34 1.28.683 2.13 1.79 2.556 3.154.427 1.45.34 2.812-.34 4.09l-9.288 17.213c3.323-.94 6.73.51 7.243 4.09a48.52 48.52 0 0 1 3.324-4.858c1.364-1.79 3.068-3.75 5.027-5.027a6.658 6.658 0 0 1 3.58-.768c1.705.17 3.153.852 4.26 2.3v.086l1.023 1.79 1.108-2.046c3.07-5.197 6.477-8.01 10.31-8.435 2.388-.342 5.2.51 6.904 2.3 1.45 1.534 2.215 3.41 2.3 5.88v.085c0 1.108-.255 2.3-.596 3.494 1.364-.34 2.64-.17 3.834.597.852.512 1.45 1.193 1.96 1.96.426.767.682 1.705.682 2.642v.34a5.25 5.25 0 0 1-.767 2.3c-2.215 3.75-4.942 6.903-8.01 9.374-1.79 1.363-3.408 2.47-5.027 3.153-5.027 2.555-9.203 2.64-12.355.255-3.664 2.557-6.818 4.26-9.63 5.113-2.727.766-5.112.596-7.072-.426-2.3-1.11-3.834-2.984-4.517-5.71-.34 1.704-.51 2.897-.51 3.58v.168l.17 1.45c0 1.107-.255 2.044-.852 2.982-.597.937-1.45 1.533-2.47 1.96-1.28.596-2.643.596-4.006 0-1.364-.51-2.3-1.534-2.898-2.898-.51-1.277-.68-2.81-.51-4.686.17-2.3.766-5.37 1.874-9.374l.767-2.726c-5.88 10.907-9.458 17.468-10.82 19.683-2.472 4.175-5.284 5.88-8.522 5.197-1.364-.34-2.47-1.022-3.324-2.13-.852-1.023-1.363-2.3-1.533-3.92l-3.323-16.616c-.34-1.447-.084-2.81.768-4.003.766-1.194 1.874-1.96 3.323-2.3 1.45-.257 2.812 0 4.005.85 1.192.767 1.96 1.875 2.3 3.324l1.364 6.563zm90.152-13.123l-3.153 2.727-4.26 3.835c1.533-2.558 3.323-4.86 5.708-6.563.342-.34.767-.596 1.194-.852.85-.426 1.788-.937 2.81-1.193zm34.68-2.727l-3.663-.17c.17-1.96.426-4.346.766-7.244a24.132 24.132 0 0 1 4.262-.68c-.512 2.726-.938 5.367-1.364 8.094zm-21.13-1.022l-.428.852-.937-.852h1.364" fill="#e08fc4"/><path d="M101.492 174.417v-.085c0-1.534-.512-2.727-1.364-3.664l-.085-.085c-1.192-1.108-2.64-1.534-4.26-1.364-2.812.34-5.454 2.64-8.01 6.9-1.28 2.216-2.3 4.433-3.068 6.733-.766 2.47-1.193 4.687-1.193 6.732v.17c-4.005 3.238-7.328 5.284-9.8 6.22-1.363.512-2.3.683-2.81.427-.342-.17-.512-.597-.512-1.45.17-2.13 1.023-4.43 2.385-7.07a33.47 33.47 0 0 1 3.58-5.455 2.387 2.387 0 0 0 2.386 0c1.45-.937 2.216-2.045 2.47-3.237.172-.938-.083-1.705-.68-2.472-.512-.682-1.193-1.023-2.045-1.023-.597-.085-1.193.086-1.875.426l-1.875 1.45c-.51.51-1.193 1.363-2.044 2.386l-2.726 4.005c-2.3 3.75-3.58 7.33-4.006 10.567v.086c-.085 1.02.086 1.96.512 2.98.51 1.28 1.363 2.217 2.47 2.814 1.62.51 3.325.596 5.114.085 2.812-.767 6.39-2.812 10.65-6.135l.682.937c2.3 2.386 5.54 2.47 10.055.17 1.28-.51 2.643-1.448 4.262-2.64 2.812-2.302 5.283-5.2 7.33-8.607l.34-1.194c0-.766-.34-1.448-1.023-1.874-.513-.256-1.11-.427-1.705-.256-.597.17-1.023.51-1.364 1.022-1.788 3.067-3.92 5.54-6.39 7.5-1.278.936-2.3 1.618-3.238 2.043h-.17c-1.193.68-2.215 1.022-3.068 1.193-.85.17-1.448 0-1.79-.342-.17-.17-.255-.425-.425-.765l6.56-5.88c4.516-4.26 6.732-8.01 6.732-11.248zM217.72 185.24c5.793.51 9.8 1.79 12.1 4.004 2.13 1.96 2.897 4.516 2.13 7.67-.17.595-.426 1.107-.938 1.363-.51.34-1.107.426-1.704.34-.596-.17-1.023-.51-1.363-1.023-.256-.51-.426-1.107-.256-1.62.34-1.532.085-2.725-.853-3.578-1.62-1.448-4.772-2.385-9.544-2.81-6.476-.513-15.422.084-27.012 1.703l-1.532 15.85c-.937 8.86-1.79 15.933-2.557 21.216l-1.106 6.902-.853 2.897c-.51.852-1.19 1.364-2.214 1.364-1.364 0-2.216-.94-2.47-2.813a66.36 66.36 0 0 1-.257-3.323v-.086c0-.68.17-1.193.595-1.62.427-.425.938-.595 1.534-.68 1.192-7.925 2.64-20.963 4.43-39.028-12.866 2.046-28.545 5.284-46.95 9.715-16.19 4.09-33.744 8.692-52.66 14.145l-17.3 5.027-6.645 2.046-1.62-.17c-.51-.257-.937-.683-1.107-1.28-.17-.596-.085-1.107.17-1.704.256-.51.682-.853 1.28-1.023l6.645-2.045 17.298-5.028c19.003-5.453 36.642-10.31 52.83-14.23 19.003-4.516 35.11-7.84 48.486-9.97.853-9.714 1.45-16.7 1.705-21.047l.256-6.476c-1.02 1.535-2.727 4.176-5.027 7.84-2.046 3.41-3.665 5.71-4.858 6.903-1.28 1.363-2.557 1.704-3.75 1.278-.68-.255-1.193-.68-1.533-1.363-.257-.68-.427-1.618-.427-2.726 0-1.533.512-5.112 1.364-10.65l.51-2.983c.086-.682 0-1.193-.256-1.363-1.276-.937-4.6-.682-10.14.852l-.083.766c-.853 6.136-1.278 10.822-1.278 14.23 0 1.28.083 2.387.168 3.154.853-.937 1.875-2.47 3.068-4.516.256-.512.767-.853 1.28-1.023a2.007 2.007 0 0 1 1.703.256c.51.34.85.767 1.02 1.363.172.51 0 1.108-.255 1.62-1.533 2.726-2.897 4.6-4.004 5.71-1.62 1.532-3.067 2.043-4.516 1.447-.936-.34-1.62-1.023-2.13-2.13-.51-1.364-.767-3.323-.767-6.05 0-2.642.256-6.136.768-10.482-1.704 4.092-3.75 8.182-5.966 12.442-2.215 4.005-3.92 6.732-5.283 8.18-1.28 1.45-2.642 1.96-3.92 1.62-.852-.34-1.534-.853-1.875-1.79-.34-.852-.512-2.045-.512-3.493 0-1.195.085-2.643.256-4.433l-9.373 8.18c-5.71 4.858-9.714 6.22-12.185 3.92-1.62-1.533-2.045-4.09-1.193-7.754.34-1.448.852-2.982 1.534-4.516.68-1.448 1.363-2.64 2.044-3.58 2.897-3.918 5.965-6.645 9.458-8.435 1.108-.51 2.046-.937 3.067-1.192l1.363-.34c.596 0 1.194.17 1.62.51.426.426.682.937.766 1.534v.17c0 .596-.172 1.022-.597 1.45-.342.425-.767.68-1.364.765l-1.023.255c-.768.17-1.62.512-2.386 1.023-2.64 1.45-5.112 3.75-7.327 6.817-.937 1.363-1.704 2.982-2.386 4.857-.51 1.618-.767 2.982-.767 4.175 0 .426.085.767.17.937 1.28-.085 3.324-1.362 6.306-3.92l4.43-3.92 6.22-5.367a11.792 11.792 0 0 1 2.217-1.45c.936-.425 1.79-.425 2.642 0 .937.512 1.45 1.535 1.45 3.07l-.088 1.618-.085.34-.425 4.346c1.022-1.362 2.045-3.322 3.322-5.708 1.874-3.664 3.75-7.5 5.623-11.59-2.3.94-4.26 1.706-5.964 2.473l-1.706.085c-.596-.17-.937-.597-1.192-1.108-.256-.51-.256-1.107-.085-1.704.17-.597.597-1.022 1.108-1.28l3.152-1.277c2.386-1.02 4.772-1.958 7.073-2.725 1.62-3.92 3.068-7.754 4.345-11.674l1.023-3.322.34-1.28c.17-.595.512-1.02 1.024-1.277.51-.34 1.02-.425 1.62-.255.51.086.935.342 1.276.768.256.34.427.852.427 1.363v.426l-.768 3.92c-.595 3.153-1.107 6.135-1.62 9.032 5.88-1.364 9.8-1.278 12.102.426 1.277 1.023 1.958 2.47 1.958 4.26l-.596 4.26-1.023 6.903 2.13-3.323c3.408-5.454 5.624-8.777 6.645-10.055.768-.937 1.535-1.533 2.13-1.874l2.046-.085c.6.256 1.11.597 1.45 1.108.426.51.682 1.364.767 2.386.17 1.532.086 4.77-.17 9.798-.256 4.175-.767 10.992-1.62 20.11l3.92-.51c9.63-1.194 17.384-1.535 23.093-1.11zM96.976 173.735l.17.68c0 .768-.34 1.79-1.023 2.9-.937 1.532-2.386 3.237-4.345 5.11l-3.238 2.983c.68-2.387 1.704-4.687 2.982-6.988 1.79-2.897 3.323-4.6 4.687-4.77zm-37.493 9.458l-.853 2.557-1.704 5.71c-1.023 3.75-1.62 6.56-1.79 8.606-.17 1.45 0 2.64.342 3.41.17.68.596 1.106 1.107 1.276.597.256 1.108.256 1.705 0 .51-.17.937-.596 1.193-1.277a1.81 1.81 0 0 0 0-1.62c-.17-.766.085-2.897.937-6.306a109.732 109.732 0 0 1 3.238-10.907c.17-.597.17-1.194-.085-1.704-.256-.513-.682-.938-1.278-1.11-.512-.17-1.108-.085-1.62.086-.596.256-.937.682-1.192 1.278zm5.71-25.82c.51.257.85.683 1.02 1.28.257.595.172 1.107-.17 1.618L54.542 181.83l-13.293 24.286a19.924 19.924 0 0 1-1.874 2.556c-1.193.937-2.216 1.363-3.324 1.108a2.955 2.955 0 0 1-1.79-1.278 5.24 5.24 0 0 1-.68-2.13l-3.41-16.787v-.512c0-.51.17-.937.51-1.363.257-.426.683-.68 1.195-.767.68-.085 1.192 0 1.704.34.51.342.85.768.936 1.364l2.982 14.828c1.534-2.472 6.05-10.652 13.634-24.712l11.077-20.536c.255-.51.766-.852 1.277-1.022l1.705.17" fill="#fff"/></g></svg>